<svg width="800" height="800" viewBox="-7 0 30 30" xmlns="http://www.w3.org/2000/svg"><path d="M10.538 26.889c-2.982 1.83-6.618 1.752-8.059-.37-1.44-2.123-.131-5.47 2.842-7.316 2.973-1.845 6.717-1.653 8.158.469 1.416 2.289-.275 5.58-2.941 7.217ZM14.992 0c-.961 0-1.008 1.002-1.008 1.002v16.361c-2.236-1.648-5.926-1.65-9.196.226C.725 19.922-1.018 24.27.616 27.3c1.663 3.084 6.481 3.596 10.544 1.263C14.316 26.751 16.007 23.807 16 21V1c-.018-.538-.463-1-1.008-1Z" fill="#80ED99" fill-rule="evenodd"/></svg>