<svg width="800" height="800" viewBox="-4.5 0 32 32" xmlns="http://www.w3.org/2000/svg"><path d="M10.58 28.833c-2.949 1.841-6.565 1.748-7.994-.37-1.43-2.117-.131-5.458 2.818-7.3 2.95-1.841 6.664-1.649 8.094.468 1.43 2.118.032 5.36-2.918 7.202ZM22.293 7.364 15.636.707c-.391-.391-1.002-.368-1.414 0C13.925.973 14 1.453 14 2v17.327c-2.219-1.644-5.881-1.647-9.124.226-4.032 2.327-5.885 6.666-4.14 9.69 1.746 3.024 6.43 3.588 10.462 1.26C14.33 28.695 16.162 25.676 16 23V3.971l4.879 4.807c.391.391 1.023.391 1.414 0 .391-.39.391-1.023 0-1.414Z" fill="#80ED99" fill-rule="evenodd"/></svg>