<svg width="800" height="800" viewBox="0 -1 32 32" xmlns="http://www.w3.org/2000/svg"><path d="M27.151 23.188c-2.862 1.601-6.367 1.367-7.742-.364-1.376-1.731-.138-4.374 2.762-5.904 2.901-1.529 5.553-1.592 7.138-.177 1.706 1.522.244 5.104-2.158 6.445ZM10 27c-2.895 1.571-6.199 1.603-7.593-.126-1.393-1.728-.17-4.392 2.733-5.949 2.902-1.557 5.451-1.498 7.166-.229 1.88 1.391.159 4.966-2.306 6.304ZM31 0c-.151 0-.291.039-.419.099L14 4c-.553 0-1 .448-1 1v14.002c-2.101-1.366-5.478-1.364-8.49.238-3.803 2.023-5.55 5.791-3.904 8.419 1.647 2.627 6.064 3.117 9.866 1.095C12.923 27.45 14.615 24.981 15 23V5.765l15-3.53v12.767c-2.101-1.366-5.478-1.364-8.49.238-3.803 2.023-5.55 5.791-3.904 8.419 1.647 2.627 6.236 3.243 10.053 1.251C30.517 23.419 31.771 21.106 32 19V1c0-.553-.447-1-1-1Z" fill="#80ED99" fill-rule="evenodd"/></svg>