<svg width="800" height="800" viewBox="0 -1 32 32" xmlns="http://www.w3.org/2000/svg"><path d="M31 0c-.143.049-17 4-17 4-.553.135-1 .448-1 1v14.002c-2.101-1.366-5.478-1.364-8.49.238-3.803 2.023-5.55 5.791-3.904 8.419 1.647 2.627 6.064 3.117 9.866 1.095C12.923 27.45 14.615 24.981 15 23c.067-.135 0-17.235 0-17.235l15-3.53v12.767c-2.101-1.366-5.478-1.364-8.49.238-3.803 2.023-5.55 5.791-3.904 8.419 1.647 2.627 6.064 3.117 9.866 1.095C29.923 23.45 31.615 20.981 32 19V1c0-.553-.447-1.187-1-1" fill="#80ED99" fill-rule="evenodd"/></svg>